<svg xmlns="http://www.w3.org/2000/svg" width="840" height="1188" viewBox="0 0 840 1188"><rect width="100%" height="100%" fill="#0B1220"/><text x="80" y="80" font-family="Inter,IBMPlexSans,Arial" font-weight="700" font-size="32" fill="#E6F0FF" text-anchor="start">CorridorOS Sticker Sheet — Keyboard & Port Labels</text>
<rect x="80" y="120" width="100" height="80" rx="10" fill="none" stroke="#E6F0FF" stroke-width="2"/><text x="130.0" y="168.0" font-family="Inter,Arial" font-size="36" fill="#E6F0FF" text-anchor="middle">ESC</text>
<rect x="200" y="120" width="100" height="80" rx="10" fill="none" stroke="#E6F0FF" stroke-width="2"/><text x="250.0" y="168.0" font-family="Inter,Arial" font-size="36" fill="#E6F0FF" text-anchor="middle">F1</text>
<rect x="320" y="120" width="100" height="80" rx="10" fill="none" stroke="#E6F0FF" stroke-width="2"/><text x="370.0" y="168.0" font-family="Inter,Arial" font-size="36" fill="#E6F0FF" text-anchor="middle">F2</text>
<rect x="440" y="120" width="100" height="80" rx="10" fill="none" stroke="#E6F0FF" stroke-width="2"/><text x="490.0" y="168.0" font-family="Inter,Arial" font-size="36" fill="#E6F0FF" text-anchor="middle">F3</text>
<rect x="560" y="120" width="100" height="80" rx="10" fill="none" stroke="#E6F0FF" stroke-width="2"/><text x="610.0" y="168.0" font-family="Inter,Arial" font-size="36" fill="#E6F0FF" text-anchor="middle">F4</text>
<rect x="680" y="120" width="100" height="80" rx="10" fill="none" stroke="#E6F0FF" stroke-width="2"/><text x="730.0" y="168.0" font-family="Inter,Arial" font-size="36" fill="#E6F0FF" text-anchor="middle">F5</text>
<rect x="800" y="120" width="100" height="80" rx="10" fill="none" stroke="#E6F0FF" stroke-width="2"/><text x="850.0" y="168.0" font-family="Inter,Arial" font-size="36" fill="#E6F0FF" text-anchor="middle">F6</text>
<rect x="920" y="120" width="100" height="80" rx="10" fill="none" stroke="#E6F0FF" stroke-width="2"/><text x="970.0" y="168.0" font-family="Inter,Arial" font-size="36" fill="#E6F0FF" text-anchor="middle">F7</text>
<rect x="1040" y="120" width="100" height="80" rx="10" fill="none" stroke="#E6F0FF" stroke-width="2"/><text x="1090.0" y="168.0" font-family="Inter,Arial" font-size="36" fill="#E6F0FF" text-anchor="middle">F8</text>
<rect x="1160" y="120" width="100" height="80" rx="10" fill="none" stroke="#E6F0FF" stroke-width="2"/><text x="1210.0" y="168.0" font-family="Inter,Arial" font-size="36" fill="#E6F0FF" text-anchor="middle">F9</text>
<rect x="1280" y="120" width="100" height="80" rx="10" fill="none" stroke="#E6F0FF" stroke-width="2"/><text x="1330.0" y="168.0" font-family="Inter,Arial" font-size="36" fill="#E6F0FF" text-anchor="middle">F10</text>
<rect x="1400" y="120" width="100" height="80" rx="10" fill="none" stroke="#E6F0FF" stroke-width="2"/><text x="1450.0" y="168.0" font-family="Inter,Arial" font-size="36" fill="#E6F0FF" text-anchor="middle">F11</text>
<rect x="1520" y="120" width="100" height="80" rx="10" fill="none" stroke="#E6F0FF" stroke-width="2"/><text x="1570.0" y="168.0" font-family="Inter,Arial" font-size="36" fill="#E6F0FF" text-anchor="middle">F12</text>
<rect x="80" y="240" width="150" height="80" rx="10" fill="none" stroke="#E6F0FF" stroke-width="2"/><text x="155.0" y="288.0" font-family="Inter,Arial" font-size="36" fill="#E6F0FF" text-anchor="middle">⌘K</text>
<rect x="240" y="240" width="150" height="80" rx="10" fill="none" stroke="#E6F0FF" stroke-width="2"/><text x="315.0" y="288.0" font-family="Inter,Arial" font-size="36" fill="#E6F0FF" text-anchor="middle">SNAP</text>
<rect x="400" y="240" width="150" height="80" rx="10" fill="none" stroke="#E6F0FF" stroke-width="2"/><text x="475.0" y="288.0" font-family="Inter,Arial" font-size="36" fill="#E6F0FF" text-anchor="middle">SHARE</text>
<rect x="80" y="380" width="120" height="50" rx="6" stroke="#E6F0FF" fill="none"/><text x="140" y="415" font-family="Inter,IBMPlexSans,Arial" font-weight="700" font-size="28" fill="#E6F0FF" text-anchor="middle">USB4</text>
<rect x="240" y="380" width="120" height="50" rx="6" stroke="#E6F0FF" fill="none"/><text x="300" y="415" font-family="Inter,IBMPlexSans,Arial" font-weight="700" font-size="28" fill="#E6F0FF" text-anchor="middle">HDMI</text>
<rect x="400" y="380" width="120" height="50" rx="6" stroke="#E6F0FF" fill="none"/><text x="460" y="415" font-family="Inter,IBMPlexSans,Arial" font-weight="700" font-size="28" fill="#E6F0FF" text-anchor="middle">AUX</text>
<rect x="560" y="380" width="120" height="50" rx="6" stroke="#E6F0FF" fill="none"/><text x="620" y="415" font-family="Inter,IBMPlexSans,Arial" font-weight="700" font-size="28" fill="#E6F0FF" text-anchor="middle">USB-A</text>
<rect x="720" y="380" width="120" height="50" rx="6" stroke="#E6F0FF" fill="none"/><text x="780" y="415" font-family="Inter,IBMPlexSans,Arial" font-weight="700" font-size="28" fill="#E6F0FF" text-anchor="middle">uSD</text>
<rect x="880" y="380" width="120" height="50" rx="6" stroke="#E6F0FF" fill="none"/><text x="940" y="415" font-family="Inter,IBMPlexSans,Arial" font-weight="700" font-size="28" fill="#E6F0FF" text-anchor="middle">OPT-A</text>
<rect x="1040" y="380" width="120" height="50" rx="6" stroke="#E6F0FF" fill="none"/><text x="1100" y="415" font-family="Inter,IBMPlexSans,Arial" font-weight="700" font-size="28" fill="#E6F0FF" text-anchor="middle">OPT-B</text>
</svg>